<?xml version="1.0" encoding="utf-8"?>
<svg fill="#000000" viewBox="0 0 30 30" width="30px" height="30px" xmlns="http://www.w3.org/2000/svg">
  <path d="M 14.984 3.87 C 14.433 3.879 13.992 4.333 14 4.884 L 14 5.384 L 8.5 5.384 C 7.942 5.377 7.486 5.826 7.486 6.384 L 6 6.384 C 5.23 6.373 4.737 7.2 5.113 7.872 C 5.292 8.193 5.633 8.389 6 8.384 L 24 8.384 C 24.77 8.395 25.263 7.568 24.887 6.896 C 24.708 6.576 24.367 6.379 24 6.384 L 22.514 6.384 C 22.514 5.826 22.058 5.377 21.5 5.384 L 16 5.384 L 16 4.884 C 16.008 4.32 15.548 3.862 14.984 3.87 Z M 6 9 L 7.793 24.234 C 7.911 25.241 8.763 26 9.777 26 L 20.223 26 C 21.237 26 22.088 25.241 22.207 24.234 L 24 9 L 6 9 Z"/>
</svg>