<?xml version="1.0" encoding="utf-8"?>
<svg fill="#000000" viewBox="0 0 30 30" width="30px" height="30px" xmlns="http://www.w3.org/2000/svg">
  <path d="M 15.059 0.391 C 14.508 0.4 14.067 0.854 14.075 1.405 L 14.075 1.905 L 8.575 1.905 C 8.017 1.898 7.561 2.347 7.561 2.905 L 6.075 2.905 C 5.305 2.894 4.812 3.721 5.188 4.393 C 5.367 4.714 5.708 4.91 6.075 4.905 L 24.075 4.905 C 24.845 4.916 25.338 4.089 24.962 3.417 C 24.783 3.097 24.442 2.9 24.075 2.905 L 22.589 2.905 C 22.589 2.347 22.133 1.898 21.575 1.905 L 16.075 1.905 L 16.075 1.405 C 16.083 0.841 15.623 0.383 15.059 0.391 Z M 6 9 L 7.793 24.234 C 7.911 25.241 8.763 26 9.777 26 L 20.223 26 C 21.237 26 22.088 25.241 22.207 24.234 L 24 9 L 6 9 Z"/>
</svg>