<?xml version="1.0" encoding="utf-8"?>
<svg fill="#000000" viewBox="0 0 30 30" width="30px" height="30px" xmlns="http://www.w3.org/2000/svg">
  <path d="M 14.976 3.534 C 14.394 3.543 13.823 4.023 13.831 4.605 L 13.761 5.134 L 8.124 5.134 C 7.534 5.126 7.052 5.601 7.052 6.191 L 5.482 6.191 C 4.668 6.179 4.147 7.053 4.544 7.763 C 4.733 8.102 5.164 8.763 5.552 8.758 L 24.329 8.723 C 25.143 8.735 25.839 7.442 25.442 6.732 C 25.253 6.393 24.892 6.185 24.504 6.191 L 22.934 6.191 C 22.934 5.601 22.452 5.126 21.862 5.134 L 16.155 5.239 L 16.155 4.71 C 16.163 4.114 15.572 3.525 14.976 3.534 Z M 5.447 8.606 L 7.342 24.706 C 7.466 25.77 8.367 26.572 9.438 26.572 L 20.478 26.572 C 21.549 26.572 22.449 25.77 22.574 24.706 L 24.469 8.606 L 5.447 8.606 Z" style="fill-rule: nonzero; fill: rgba(255, 255, 255, 0.82); paint-order: fill; visibility: hidden;"/>
  <path d="M 14.984 3.87 C 14.433 3.879 13.992 4.333 14 4.884 L 14 5.384 L 8.5 5.384 C 7.942 5.377 7.486 5.826 7.486 6.384 L 6 6.384 C 5.23 6.373 4.737 7.2 5.113 7.872 C 5.292 8.193 5.633 8.389 6 8.384 L 24 8.384 C 24.77 8.395 25.263 7.568 24.887 6.896 C 24.708 6.576 24.367 6.379 24 6.384 L 22.514 6.384 C 22.514 5.826 22.058 5.377 21.5 5.384 L 16 5.384 L 16 4.884 C 16.008 4.32 15.548 3.862 14.984 3.87 Z M 6 9 L 7.793 24.234 C 7.911 25.241 8.763 26 9.777 26 L 20.223 26 C 21.237 26 22.088 25.241 22.207 24.234 L 24 9 L 6 9 Z" style="vector-effect: non-scaling-stroke; stroke-opacity: 0.69; stroke: rgb(255, 255, 255); stroke-width: 0px;"/>
</svg>